<?xml version="1.0" encoding="utf-8"?>
<svg xmlns="http://www.w3.org/2000/svg" viewBox="0 0 64 64" width="512" height="512">
  <path fill="#faefde" d="M44,10.3c0-1.7-10.3-3.1-12-3.1s-12,1.4-12,3.1c0,12.4-16,11-16,26.4C4,49.2,16.5,57,32,57s28-7.8,28-20.2C60,21.3,44,24.3,44,10.3z" />
  <path fill="#fff8ee" d="M54.9,49c-5.1,5.1-13.4,8-22.9,8c-10,0-18.8-3.3-23.7-8.9c1.7-1.9,4.5-2.2,6.6-0.8c4.3,3,10.3,4.7,17.1,4.7c6.3,0,12.1-1.5,16.3-4.1C50.5,46.5,53.3,47,54.9,49z" />
  <path fill="#efd8be" d="M54.9,49c-5.1,5.1-13.4,8-22.9,8c-10,0-18.8-3.3-23.7-8.9c1.7-1.9,4.5-2.2,6.6-0.8c4.3,3,10.3,4.7,17.1,4.7c6.3,0,12.1-1.5,16.3-4.1C50.5,46.5,53.3,47,54.9,49z" />
  <path fill="#8d6c9f" d="M48.9,46.3c-0.3-0.5-0.9-0.6-1.4-0.3c-0.5,0.3-0.6,0.9-0.3,1.4l1.1,1.7c0.2,0.3,0.5,0.5,0.8,0.5 c0.2,0,0.4-0.1,0.5-0.2c0.5-0.3,0.6-0.9,0.3-1.4L48.9,46.3z M44.7,48.6c-0.2-0.5-0.8-0.8-1.3-0.6c-0.5,0.2-0.8,0.8-0.6,1.3l0.7,1.9 c0.2,0.4,0.5,0.6,0.9,0.6c0.1,0,0.2,0,0.4-0.1c0.5-0.2,0.8-0.8,0.6-1.3L44.7,48.6z M38.9,49.3c-0.5,0.1-0.9,0.6-0.8,1.2l0.4,2 c0.1,0.5,0.5,0.8,1,0.8c0.1,0,0.1,0,0.2,0c0.5-0.1,0.9-0.6,0.8-1.2l-0.4-2C40,49.6,39.4,49.2,38.9,49.3z M34.2,49.9 c-0.6,0-1,0.5-0.9,1.1l0.1,2c0,0.5,0.5,0.9,1,0.9c0,0,0,0,0.1,0c0.6,0,1-0.5,0.9-1.1l-0.1-2C35.2,50.3,34.7,49.9,34.2,49.9z M29.5,49.9c-0.6,0-1,0.4-1.1,0.9l-0.1,2c0,0.6,0.4,1,0.9,1.1c0,0,0,0,0.1,0c0.5,0,1-0.4,1-0.9l0.1-2C30.4,50.4,30,49.9,29.5,49.9z M24.8,49.3c-0.5-0.1-1.1,0.2-1.2,0.8l-0.4,2c-0.1,0.5,0.2,1.1,0.8,1.2c0.1,0,0.1,0,0.2,0c0.5,0,0.9-0.3,1-0.8l0.4-2 C25.6,49.9,25.3,49.4,24.8,49.3z M20.3,47.9c-0.5-0.2-1.1,0-1.3,0.6l-0.7,1.9c-0.2,0.5,0,1.1,0.6,1.3c0.1,0,0.2,0.1,0.4,0.1 c0.4,0,0.8-0.2,0.9-0.6l0.7-1.9C21.1,48.7,20.8,48.1,20.3,47.9z M14.9,46.1l-1.1,1.7c-0.3,0.5-0.2,1.1,0.3,1.4 c0.2,0.1,0.4,0.2,0.6,0.2c0.3,0,0.6-0.2,0.8-0.4l1.1-1.7c0.3-0.5,0.2-1.1-0.3-1.4C15.8,45.5,15.2,45.6,14.9,46.1z" />
  <path fill="#8d6c9f" d="M52.3,21.8C48.4,18.9,45,16.3,45,10c0-3.8-12.9-4-13-4c-3.8,0-13,1.2-13,4.3c0,5.4-3.2,7.9-7,10.8 c-4.2,3.3-9,7-9,15.7C3,49.1,15.2,58,32,58s29-8.9,29-21.2C61,28.4,56.4,24.9,52.3,21.8z M32,56C16.1,56,5,48.1,5,36.8 c0-7.7,4.2-10.9,8.3-14.1c3.8-2.9,7.7-6,7.7-12.3C21.6,9.5,27.1,8,32,8c5.2,0,10.3,1.3,11,2.1c0,7.3,4.1,10.3,8.1,13.3 c4.1,3.1,7.9,5.9,7.9,13.4C59,48.1,47.9,56,32,56z" />
  <path fill="#8d6c9f" d="M26,13c-0.6,0-1,0.4-1,1c0,3.3-2.6,8.2-6.4,10.1c-0.5,0.2-0.7,0.8-0.4,1.3c0.2,0.4,0.5,0.6,0.9,0.6 c0.1,0,0.3,0,0.4-0.1C23.6,23.8,27,18.5,27,14C27,13.4,26.6,13,26,13z M45.4,24.1C41.6,22.2,39,17.3,39,14c0-0.6-0.4-1-1-1 s-1,0.4-1,1c0,4.5,3.4,9.8,7.6,11.9C44.7,26,44.8,26,45,26c0.4,0,0.7-0.2,0.9-0.6C46.1,25,45.9,24.4,45.4,24.1z M32,13 c-0.6,0-1,0.4-1,1v14c0,0.6,0.4,1,1,1c0.6,0,1-0.4,1-1V14C33,13.4,32.6,13,32,13z" />
</svg>