<?xml version="1.0" encoding="utf-8"?>
<svg xmlns="http://www.w3.org/2000/svg" viewBox="0 0 64 64" width="512" height="512">
  <path fill="#f9e3ae" d="M61,26.387C61,16.312,52.075,7,42,7S25,17,25,24c0,13,17.216,13.097,27.29,13.097 c1.55,0,2.806-1.256,2.806-2.806s-1.256-2.806-2.806-2.806C48,31.484,33,33,33,24c0-4,2.8-6,9-6s10,3.8,10,10 c0,11.366-8.634,18.968-20,18.968S13,41,13,31c0-6.2,3-13,10-13c6.2,0,10,5,10,6c0,6.2-15.09,7.484-21.29,7.484 c-1.55,0-2.806,1.256-2.806,2.806s1.256,2.806,2.806,2.806C21.784,37.097,41,37,41,25c0-10.075-8.925-18-19-18S3,16.312,3,26.387 C3,42.403,12,56,32,56S61,42.403,61,26.387z" />
  <path fill="#efc88e" d="M52.722,41.301C48.769,47.465,41.216,51,32,51c-9.47,0-16.849-3.414-20.776-9.612 c-1.28-2.021-3.767-2.804-5.926-2.02C9.11,49.111,17.767,56,32,56c14.251,0,22.913-6.906,26.717-16.669 C56.549,38.5,54.025,39.271,52.722,41.301z" />
  <path fill="#faefde" d="M42,7c-3.568,0-6.737,1.257-9.347,3.188C34,11,35,12,36.528,13.543C36.544,13.528,38.267,12,42,12 c5.141,0,8.355,2.754,10.146,5.064C53.132,18.335,54.608,19,56.101,19c0.99,0,1.982-0.307,2.847-0.91C55.748,11.732,49.175,7,42,7z" />
  <path fill="#faefde" d="M8.691,23.238C10.489,16.201,15.465,12,22,12c4.237,0,8.385,1.944,11.096,5.2 c1.616,1.94,4.383,2.327,6.469,1.03c-0.014-0.032-0.025-0.066-0.039-0.098c0.076-0.008,0.148-0.02,0.225-0.027 c0.129-0.088,0.265-0.16,0.387-0.261C37,14,36,13,32.653,10.188C29.563,8.177,25.869,7,22,7C11.925,7,3,16.312,3,26.387 c0,0.179,0.007,0.355,0.009,0.533c0.282,0.048,0.563,0.081,0.841,0.081C6.08,27.001,8.113,25.498,8.691,23.238z" />
  <g>
    <path fill="#8d6c9f" d="M42,6c-4.427,0-7.734,1.551-9.387,2.995C29.515,7.105,25.864,6,22,6C10.411,6,2,15.673,2,29 c0,17.009,11.776,28,30,28c17.944,0,30-11.252,30-28C62,17.85,54.991,6,42,6z M32,55C18.464,55,4,48.17,4,29 C4,16.636,11.402,8,22,8c9.757,0,18,7.785,18,17c0,1.398-0.315,2.583-1.069,3.957C36.09,28.241,34,27.035,34,25 c0-4.785-5.688-8-11-8c-5.551,0-11,5.449-11,11v2c-2.093,0-4,1.907-4,4s1.907,4,4,4c0.454,0,0.93,0,1.417-0.001 C17.175,44.72,23.256,48,32,48c8.745,0,14.827-3.281,18.585-10.005C51.056,37.998,51.528,38,52,38c2.093,0,4-1.907,4-4 c0-1.751-1.339-3.355-3-3.838V28c0-4.327-4.294-11-10-11c-1.01,0-2.014,0.042-2.825,0.228c-1.341-2.749-3.352-5.171-5.831-7.052 C35.438,9.376,37.914,8,42,8c11.691,0,18,10.82,18,21C60,44.794,49.009,55,32,55z M26.205,30.919 c1.023,1.471,2.366,2.642,3.963,3.569C24.423,35.995,17.078,36,12,36c-0.991,0-2-1.009-2-2s1.009-2,2-2 C15.711,32,21.808,31.997,26.205,30.919z M14,29.995V28c0-4.458,4.542-9,9-9c0.55,0,1.09,0.041,1.619,0.111 C24.173,20.475,24,21.939,24,23c0,2.398,0.423,4.407,1.183,6.104C21.787,29.841,17.385,29.972,14,29.995z M32.859,35.752 c4.285,1.613,9.728,2.093,15.426,2.212C44.852,43.432,39.636,46,32,46c-7.628,0-12.84-2.562-16.273-8.017 C21.173,37.914,27.816,37.555,32.859,35.752z M26,23c0-1.16,0.229-2.432,0.593-3.457C29.713,20.507,32,22.645,32,25 c0,7,13.01,7,20,7c0.991,0,2,1.009,2,2s-1.009,2-2,2C35.533,36,26,33.873,26,23z M51,29.999c-2.725-0.007-6.643-0.071-10.032-0.626 C41.685,27.91,42,26.552,42,25c0-2.048-0.37-4.031-1.036-5.897C41.393,19.043,42.033,19,43,19c4.339,0,8,5.528,8,9V29.999z" />
    <path fill="#8d6c9f" d="M27.576 15.066c.493.243 1.096.038 1.339-.455l.884-1.794c.243-.493.038-1.096-.455-1.339-.493-.243-1.096-.038-1.339.455l-.884 1.794C26.878 14.22 27.083 14.823 27.576 15.066zM10.848 19.519c.437.334 1.068.248 1.401-.19.333-.438.247-1.068-.19-1.401l-1.592-1.211c-.438-.333-1.068-.247-1.401.19-.333.438-.247 1.068.19 1.401L10.848 19.519zM14.113 15.816c.29.467.909.613 1.377.323.467-.29.613-.909.323-1.377l-1.054-1.7c-.29-.467-.909-.613-1.377-.323-.467.29-.613.909-.323 1.377L14.113 15.816zM10.489 23.001c.175-.521-.109-1.091-.63-1.266L7.963 21.1c-.521-.175-1.091.109-1.266.63-.175.521.109 1.091.63 1.266l1.896.636C9.745 23.807 10.314 23.523 10.489 23.001zM32.741 17.69l1.467-1.36c.403-.374.428-1.01.054-1.413-.374-.403-1.01-.428-1.413-.054l-1.467 1.36c-.404.374-.428 1.01-.054 1.413S32.338 18.064 32.741 17.69zM17.902 13.719c.127.535.67.868 1.205.74.535-.128.868-.67.74-1.205l-.465-1.945c-.128-.535-.67-.868-1.205-.74s-.868.67-.74 1.205L17.902 13.719zM23.635 14.042c.545.072 1.05-.316 1.122-.861l.261-1.983c.072-.545-.316-1.05-.861-1.122-.545-.072-1.05.316-1.122.861l-.261 1.983C22.702 13.465 23.09 13.97 23.635 14.042z" />
  </g>
</svg>