<svg xmlns="http://www.w3.org/2000/svg" width="512" height="512" viewBox="0 0 64 64"><path fill="#ffeb9b" d="M45.864 14.141c1.106-.553 2.334-.837 3.568-.76 2.973.187 7.778 1.744 7.778 11.31 0 12.696-18.339 35.268-43.732 35.268-1.013 0-2.025-.182-2.907-.415-1.658-.438-2.97-1.7-3.513-3.327-.471-1.414-.32-2.97.456-4.243 1.238-2.031 3.777-5.029 8.785-7.533 8.464-4.232 14.478-7.779 18.075-11.375 2.821-2.82 6.622-8.433 7.317-12.608a12.31 12.31 0 0 1 .779-2.765c.656-1.555 1.884-2.797 3.394-3.552z"/><path fill="#72caaf" d="M44.778 14.185c-.219-3.986-3.494-8.026-3.494-8.026s3.01-1.817 5.411-2.118c0 0 .801 6.362 4.051 9.276l-5.968.868z"/><path fill="#8d6c9f" d="M44.636 15.185a.998.998 0 0 1-.997-.945c-.199-3.62-3.242-7.413-3.273-7.451a1.002 1.002 0 0 1 .261-1.487c.13-.078 3.221-1.93 5.804-2.253a1 1 0 0 1 1.116.866c.008.061.798 6.03 3.728 8.657a1 1 0 1 1-1.336 1.488c-2.687-2.408-3.811-6.814-4.2-8.837-1.136.303-2.317.852-3.114 1.263 1.031 1.5 2.842 4.547 3.012 7.644a1 1 0 0 1-.943 1.053c-.021.002-.04.002-.058.002z"/><path fill="#efc88e" d="M53.399 14.651c-1.395-.947-3.279.172-3.102 1.849.08.76.123 1.585.123 2.482 0 12.023-16.447 32.9-39.756 35.079-2.566.24-3.473 3.661-1.27 4.999.102.062.208.122.317.18.172.092.356.163.543.217.952.273 2.088.502 3.224.502 25.393 0 43.732-22.571 43.732-35.268 0-5.794-1.762-8.649-3.811-10.04z"/><path fill="#8d6c9f" d="M13.478 60.959c-.973 0-2.036-.15-3.162-.447-1.978-.522-3.55-2.01-4.206-3.979-.573-1.716-.372-3.567.551-5.079 1.324-2.173 3.994-5.309 9.191-7.907 9.291-4.646 14.619-7.991 17.816-11.188 2.9-2.898 6.416-8.335 7.038-12.064.179-1.079.463-2.085.843-2.988.732-1.736 2.105-3.178 3.868-4.061 1.3-.649 2.702-.95 4.078-.863 3.255.204 8.715 2.075 8.715 12.309 0 12.739-18.447 36.267-44.732 36.267zm32.834-45.924c-1.336.669-2.373 1.751-2.919 3.048-.32.759-.56 1.614-.714 2.54-.768 4.602-4.904 10.46-7.597 13.15-3.358 3.357-8.842 6.815-18.336 11.563-4.772 2.386-7.19 5.21-8.379 7.159-.615 1.009-.746 2.249-.361 3.405.443 1.327 1.497 2.328 2.82 2.678.958.253 1.851.381 2.651.381 25.11 0 42.732-22.231 42.732-34.268 0-6.558-2.302-10.027-6.84-10.313-1.015-.064-2.071.164-3.057.657z"/><path fill="#8d6c9f" d="M50.753 19.228h-.028l-2-.056a1.002 1.002 0 0 1-.972-1.028c.016-.552.457-.963 1.028-.972l1.998.056a1.001 1.001 0 0 1-.026 2zM50.199 24.37a.962.962 0 0 1-.184-.017l-1.967-.365a1.001 1.001 0 0 1 .365-1.967l1.967.365a1.001 1.001 0 0 1-.181 1.984zM48.902 29.377a.985.985 0 0 1-.331-.057l-1.888-.662a1 1 0 1 1 .662-1.886l1.888.662a1 1 0 0 1-.331 1.943zM46.796 34.096c-.157 0-.317-.037-.466-.115l-1.769-.934a1.001 1.001 0 0 1 .934-1.77l1.769.934a1.001 1.001 0 0 1-.468 1.885zM44.087 38.486c-.203 0-.408-.062-.586-.19l-1.619-1.173a1 1 0 1 1 1.173-1.619l1.619 1.173a1 1 0 0 1-.587 1.809zM40.785 42.439a.998.998 0 0 1-.688-.274l-1.45-1.377a1.001 1.001 0 0 1 1.377-1.451l1.45 1.377a1.001 1.001 0 0 1-.689 1.725zM37.008 45.932a.994.994 0 0 1-.774-.367l-1.267-1.548a.997.997 0 0 1 .141-1.406.995.995 0 0 1 1.406.141l1.267 1.548a.997.997 0 0 1-.773 1.632zM32.859 48.966a1 1 0 0 1-.845-.463l-1.073-1.688a1 1 0 1 1 1.688-1.074l1.073 1.688a1 1 0 0 1-.843 1.537zM28.365 51.449a1 1 0 0 1-.9-.563l-.876-1.799a1 1 0 0 1 1.799-.875l.876 1.799a1 1 0 0 1-.899 1.438zM23.631 53.426a1 1 0 0 1-.941-.663l-.674-1.883a.999.999 0 1 1 1.882-.674l.674 1.883a.998.998 0 0 1-.941 1.337zM18.72 54.904c-.451 0-.86-.308-.971-.766l-.469-1.944a.998.998 0 0 1 .737-1.206.997.997 0 0 1 1.206.737l.469 1.944a.998.998 0 0 1-.972 1.235zM13.686 55.864a1 1 0 0 1-.99-.867l-.266-1.981a1 1 0 0 1 1.982-.266l.266 1.981a1 1 0 0 1-.992 1.133z"/></svg>