<?xml version="1.0" encoding="utf-8"?>
<svg xmlns="http://www.w3.org/2000/svg" viewBox="0 0 64 64" width="512" height="512">
  <path fill="#efd8be" d="M34,50h-4v10c0,1.105,0.895,2,2,2h0c1.105,0,2-0.895,2-2V50z" />
  <path fill="#ace3ff" d="M45,3H19c-2.209,0-4,1.791-4,4v38c0,2.209,1.791,4,4,4h26c2.209,0,4-1.791,4-4V7 C49,4.791,47.209,3,45,3z" />
  <path fill="#7bbeeb" d="M24 11L24 11c1.657 0 3 1.343 3 3v28c0 .552-.448 1-1 1h-4c-.552 0-1-.448-1-1V14C21 12.343 22.343 11 24 11zM40 11L40 11c1.657 0 3 1.343 3 3v28c0 .552-.448 1-1 1h-4c-.552 0-1-.448-1-1V14C37 12.343 38.343 11 40 11z" />
  <g>
    <path fill="#8d6c9f" d="M45,2H19c-2.757,0-5,2.243-5,5v38c0,2.757,2.243,5,5,5h9v10c0,2.206,1.794,4,4,4s4-1.794,4-4V50h9 c2.757,0,5-2.243,5-5V7C50,4.243,47.757,2,45,2z M34,60c0,1.105-0.895,2-2,2s-2-0.895-2-2V50h4V60z M48,45c0,1.654-1.346,3-3,3h-9 h-2h-4h-2h-9c-1.654,0-3-1.346-3-3V7c0-1.654,1.346-3,3-3h26c1.654,0,3,1.346,3,3V45z" />
    <path fill="#8d6c9f" d="M27,34c-0.553,0-1,0.447-1,1v4c0,0.553,0.447,1,1,1s1-0.447,1-1v-4C28,34.447,27.553,34,27,34z" />
    <path fill="#8d6c9f" d="M24 10c-2.206 0-4 1.794-4 4v28c0 1.103.897 2 2 2h5c.553 0 1-.447 1-1s-.447-1-1-1h-5V14c0-1.103.897-2 2-2s2 .897 2 2v17c0 .553.447 1 1 1s1-.447 1-1V14C28 11.794 26.206 10 24 10zM40 10c-2.206 0-4 1.794-4 4v28c0 1.103.897 2 2 2h4c1.103 0 2-.897 2-2V14C44 11.794 42.206 10 40 10zM42 42h-4V14c0-1.103.897-2 2-2s2 .897 2 2V42zM53 10h2c.553 0 1-.447 1-1s-.447-1-1-1h-2c-.553 0-1 .447-1 1S52.447 10 53 10zM55 13h-2c-.553 0-1 .447-1 1s.447 1 1 1h2c.553 0 1-.447 1-1S55.553 13 55 13zM55 18h-2c-.553 0-1 .447-1 1s.447 1 1 1h2c.553 0 1-.447 1-1S55.553 18 55 18zM55 23h-2c-.553 0-1 .447-1 1s.447 1 1 1h2c.553 0 1-.447 1-1S55.553 23 55 23zM55 28h-2c-.553 0-1 .447-1 1s.447 1 1 1h2c.553 0 1-.447 1-1S55.553 28 55 28zM55 33h-2c-.553 0-1 .447-1 1s.447 1 1 1h2c.553 0 1-.447 1-1S55.553 33 55 33zM55 38h-2c-.553 0-1 .447-1 1s.447 1 1 1h2c.553 0 1-.447 1-1S55.553 38 55 38zM55 43h-2c-.553 0-1 .447-1 1s.447 1 1 1h2c.553 0 1-.447 1-1S55.553 43 55 43z" />
  </g>
</svg>