<?xml version="1.0" encoding="utf-8"?>
<svg xmlns="http://www.w3.org/2000/svg" viewBox="0 0 64 64" width="512" height="512">
  <path fill="#f283a5" d="M27 25A6 6 0 1 0 27 37A6 6 0 1 0 27 25Z" />
  <path fill="#f283a5" d="M39 25A6 6 0 1 0 39 37 6 6 0 1 0 39 25zM21.433 28.451C20.475 26.412 18.402 25 16 25c-3.314 0-6 2.686-6 6s2.686 6 6 6c2.441 0 4.542-1.458 5.479-3.551" />
  <path fill="#f283a5" d="M44.521 33.449C45.458 35.542 47.559 37 50 37c3.314 0 6-2.686 6-6s-2.686-6-6-6c-2.463 0-4.579 1.483-5.503 3.605M15.355 25.038C15.125 24.402 15 23.716 15 23c0-3.314 2.686-6 6-6s6 2.686 6 6c0 .67-.11 1.315-.313 1.917 0 0-2 .521-3.344 1.302C22 27 22 28 22 28s-1 0-2-1S15.355 25.038 15.355 25.038zM38.718 24.822C38.901 24.248 39 23.635 39 23c0-3.314-2.686-6-6-6s-6 2.686-6 6c0 .667.109 1.308.309 1.907 0 0 2.316.968 3.003 1.03C31 26 33 29 33 29s1-2 2-3S38.718 24.822 38.718 24.822z" />
  <path fill="#f283a5" d="M39.27 24.784C39.094 24.221 39 23.621 39 23c0-3.314 2.686-6 6-6s6 2.686 6 6c0 .639-.1 1.255-.285 1.833 0 0-2.507.334-3.111.751C47 26 45 28 45 28s-2-1-3-2S39.27 24.784 39.27 24.784zM25.136 36.654C26.284 37.747 27 39.29 27 41c0 3.314-2.686 6-6 6s-6-2.686-6-6c0-1.55.588-2.963 1.553-4.028 0 0 1.697-.764 2.572-.868C20 36 22 34 22 34s1 1 2 2S25.136 36.654 25.136 36.654zM28.821 36.695C27.698 37.785 27 39.311 27 41c0 3.314 2.686 6 6 6s6-2.686 6-6c0-1.715-.72-3.262-1.874-4.356 0 0-1.085-.644-2.106-1.144C34 35 33 33 33 33s-1 1-2 2S28.821 36.695 28.821 36.695zM49.274 36.789C50.341 37.872 51 39.359 51 41c0 3.314-2.686 6-6 6s-6-2.686-6-6c0-1.744.744-3.315 1.933-4.411l1.963-.964L45 34l2 2L49.274 36.789z" />
  <path fill="#f283a5" d="M33.399 46.843C33.141 47.512 33 48.24 33 49c0 3.314 2.686 6 6 6s6-2.686 6-6c0-.793-.154-1.55-.433-2.243l-2.598-.569-1.594-1.375L39 43l-1.688 2.188L36 46 33.399 46.843zM21.345 46.989C21.122 47.618 21 48.295 21 49c0 3.314 2.686 6 6 6s6-2.686 6-6c0-.747-.136-1.462-.386-2.121L30 46l-3-3-3 3L21.345 46.989z" />
  <path fill="#f283a5" d="M39,55c0,3.314-2.686,6-6,6s-6-2.686-6-6l3-1l2-2l1.062-1.938L34,52l2,2L39,55" />
  <path fill="#72caaf" d="M15 23c-3 0-5-4-5-8 10 0 12 2 12 2s-4 0-6 2S15 23 15 23zM44 17c1-1 2-5 0-8-7 1-11 8-11 8s1.25-.5 3.625 1.25S39 21 39 21s1.687-2.5 2.344-2.75C42 18 44 17 44 17" />
  <path fill="#72caaf" d="M33 17c0 0-4-7-11-8-2 3-1 7 0 8 0 0 2.125.063 3.062 1.531C26 20 27 21 27 21s.812-1.688 2.406-2.844C31 17 33 17 33 17zM44 17c0 0 2-2 12-2 0 4-2 8-5 8 0 0-.5-2.5-1.75-4.25S44 17 44 17z" />
  <g>
    <path fill="#8d6c9f" d="M59.786 26.125c.156 0 .315-.037.463-.114l1.771-.928c.489-.256.678-.861.421-1.35-.256-.489-.859-.677-1.35-.421L59.32 24.24c-.489.256-.678.861-.421 1.35C59.078 25.93 59.426 26.125 59.786 26.125zM56.031 39.508c-.256-.489-.86-.678-1.35-.421-.489.256-.678.861-.421 1.35l.928 1.771c.179.341.526.536.887.536.156 0 .315-.037.463-.114.489-.256.678-.861.421-1.35L56.031 39.508zM61.558 36.341l-1.689-1.07c-.467-.294-1.084-.156-1.38.31-.295.466-.157 1.084.31 1.38l1.689 1.07c.166.105.351.155.534.155.331 0 .655-.165.846-.465C62.163 37.254 62.024 36.636 61.558 36.341zM63.071 29.763l-1.999-.082c-.566-.017-1.018.407-1.04.958-.023.552.406 1.018.958 1.04l1.999.082c.014 0 .028.001.042.001.534 0 .977-.421.999-.959C64.052 30.251 63.623 29.786 63.071 29.763zM24 40c0-.552-.448-1-1-1s-1 .448-1 1c0 1.103-.897 2-2 2-.552 0-1 .448-1 1s.448 1 1 1C22.206 44 24 42.206 24 40zM35 39c-.552 0-1 .448-1 1 0 1.103-.897 2-2 2-.552 0-1 .448-1 1s.448 1 1 1c2.206 0 4-1.794 4-4C36 39.448 35.552 39 35 39zM47 39c-.552 0-1 .448-1 1 0 1.103-.897 2-2 2-.552 0-1 .448-1 1s.448 1 1 1c2.206 0 4-1.794 4-4C48 39.448 47.552 39 47 39z" />
    <path fill="#8d6c9f" d="M57,31c0-3.21-2.175-5.915-5.126-6.738c0.023-0.124,0.041-0.247,0.057-0.372 C55.121,23.202,57,19.043,57,15c0-0.552-0.448-1-1-1c-5.084,0-8.186,0.503-10.062,1.044c0.425-1.946,0.3-4.488-1.106-6.599 c-0.214-0.321-0.59-0.492-0.974-0.435c-4.425,0.632-7.68,3.434-9.626,5.652C35.324,8.161,40.184,4,46,4c0.552,0,1-0.448,1-1 s-0.448-1-1-1c-7.074,0-12.923,5.278-13.855,12.099c-1.888-2.27-5.281-5.415-10.003-6.089c-0.383-0.056-0.76,0.114-0.974,0.435 c-1.407,2.11-1.531,4.653-1.106,6.599C18.186,14.503,15.084,14,10,14c-0.552,0-1,0.448-1,1c0,4.047,1.882,8.209,5.077,8.892 c0.016,0.124,0.02,0.25,0.042,0.372C11.171,25.089,9,27.793,9,31c0,3.427,2.477,6.281,5.734,6.879C14.255,38.84,14,39.906,14,41 c0,3.551,2.66,6.486,6.091,6.934C20.037,48.285,20,48.64,20,49c0,3.544,2.649,6.473,6.069,6.931C26.527,59.351,29.456,62,33,62 s6.473-2.649,6.931-6.069C43.351,55.473,46,52.544,46,49c0-0.36-0.035-0.715-0.088-1.066C49.341,47.485,52,44.55,52,41 c0-1.101-0.259-2.162-0.737-3.12C54.521,37.283,57,34.428,57,31z M55,31c0,2.757-2.243,5-5,5c-1.857,0-3.546-1.041-4.408-2.667 C45.851,32.602,46,31.819,46,31c0-0.819-0.149-1.602-0.408-2.333C46.454,27.04,48.138,26,50,26C52.757,26,55,28.243,55,31z M33,46 c-2.757,0-5-2.243-5-5c0-1.292,0.498-2.494,1.381-3.426c1.522-0.553,2.797-1.617,3.619-2.987c0.821,1.368,2.094,2.431,3.613,2.985 C37.499,38.504,38,39.704,38,41C38,43.757,35.757,46,33,46z M16.112,24.008C16.045,23.677,16,23.342,16,23c0-2.757,2.243-5,5-5 s5,2.243,5,5c0,0.374-0.056,0.741-0.137,1.101c-1.766,0.29-3.309,1.24-4.369,2.591C20.206,25.057,18.236,24.043,16.112,24.008z M33,18c2.757,0,5,2.243,5,5c0,0.374-0.055,0.74-0.136,1.101c-2.065,0.339-3.825,1.582-4.864,3.312 c-1.038-1.73-2.798-2.973-4.863-3.312C28.056,23.74,28,23.374,28,23C28,20.243,30.243,18,33,18z M45,18c2.757,0,5,2.243,5,5 c0,0.342-0.047,0.677-0.115,1.008c-2.138,0.035-4.098,1.043-5.383,2.679c-1.06-1.35-2.602-2.297-4.367-2.587 C40.055,23.741,40,23.374,40,23C40,20.243,42.243,18,45,18z M22,31c0-2.757,2.243-5,5-5s5,2.243,5,5s-2.243,5-5,5S22,33.757,22,31z M39,36c-2.757,0-5-2.243-5-5s2.243-5,5-5s5,2.243,5,5S41.757,36,39,36z M51.892,21.818c-0.395-2.308-1.92-4.23-3.987-5.178 c1.57-0.313,3.828-0.583,7.048-0.632C54.714,18.62,53.567,21.141,51.892,21.818z M43.489,10.104 c1.233,2.422,0.465,5.337-0.12,6.096c-1.851,0.444-3.415,1.623-4.369,3.213c-0.936-1.56-2.459-2.723-4.264-3.186 C36.134,14.36,39.176,10.995,43.489,10.104z M22.511,10.104c4.313,0.891,7.354,4.256,8.753,6.123 c-1.805,0.463-3.328,1.627-4.264,3.186c-0.954-1.59-2.518-2.769-4.369-3.213C22.047,15.441,21.278,12.526,22.511,10.104z M11.046,16.008c3.224,0.048,5.482,0.319,7.05,0.631c-2.068,0.948-3.593,2.87-3.989,5.179 C12.433,21.141,11.286,18.62,11.046,16.008z M11,31c0-2.757,2.243-5,5-5c1.847,0,3.547,1.042,4.409,2.664 C20.149,29.396,20,30.18,20,31c0,0.819,0.149,1.602,0.408,2.333C19.546,34.959,17.857,36,16,36C13.243,36,11,33.757,11,31z M16,41 c0-1.132,0.397-2.211,1.095-3.091c1.749-0.278,3.315-1.217,4.401-2.598c0.801,1.02,1.877,1.81,3.117,2.262 C25.499,38.503,26,39.704,26,41c0,2.757-2.243,5-5,5S16,43.757,16,41z M22,49c0-0.375,0.056-0.741,0.137-1.101 c2.065-0.34,3.825-1.583,4.863-3.312c1.038,1.73,2.798,2.973,4.864,3.312C31.945,48.259,32,48.625,32,49c0,2.757-2.243,5-5,5 S22,51.757,22,49z M33,60c-2.447,0-4.48-1.769-4.908-4.094c2.085-0.329,3.863-1.577,4.908-3.319 c1.046,1.742,2.824,2.99,4.908,3.319C37.48,58.231,35.447,60,33,60z M39,54c-2.757,0-5-2.243-5-5c0-0.375,0.054-0.741,0.135-1.101 c2.066-0.339,3.826-1.582,4.865-3.312c1.039,1.731,2.8,2.974,4.866,3.313C43.947,48.259,44,48.625,44,49C44,51.757,41.757,54,39,54 z M45,46c-2.757,0-5-2.243-5-5c0-1.282,0.517-2.506,1.396-3.431c1.236-0.453,2.31-1.241,3.108-2.258 c1.085,1.38,2.649,2.318,4.396,2.597C49.6,38.788,50,39.86,50,41C50,43.757,47.757,46,45,46z" />
  </g>
</svg>