<?xml version="1.0" encoding="utf-8"?>
<svg xmlns="http://www.w3.org/2000/svg" viewBox="0 0 64 64" width="512" height="512">
  <path fill="#faefde" d="M52.64,36.44,51.13,42.5l-3.75,15A2,2,0,0,1,45.44,59H18.56a2,2,0,0,1-1.94-1.52l-3.74-15-1.52-6.06a.5.5,0,0,1,.8-.51l3.24,2.59a1,1,0,0,0,1.22,0l2.78-2.09a1,1,0,0,1,1.2,0l2.8,2.1a1,1,0,0,0,1.2,0l2.76-2.09a1,1,0,0,1,1.2,0l2.84,2.11a1,1,0,0,0,1.2,0l2.8-2.1a1,1,0,0,1,1.2,0l2.8,2.1a1,1,0,0,0,1.2,0l2.8-2.1a1,1,0,0,1,1.2,0l2.78,2.09a1,1,0,0,0,1.22,0l3.24-2.59A.5.5,0,0,1,52.64,36.44Z" />
  <path fill="#cda1a7" d="M45.64,17.5A3.9,3.9,0,0,1,44,15.87,13.54,13.54,0,0,0,32,9a13.54,13.54,0,0,0-12,6.88,3.9,3.9,0,0,1-1.66,1.63C12.09,20.68,8,23.8,8,30.36A7,7,0,0,0,12,36h.32l12.54,7.25,21.59-1.18L52,36h0a7,7,0,0,0,4-5.65C56,23.8,51.9,20.67,45.64,17.5Z" />
  <path fill="#efd8be" d="M46 59L18 59 16 55 48 55 46 59zM52.64 36.44L52 40a6 6 0 0 1-5.91 5H17.91A6 6 0 0 1 12 40l-.64-3.61a.5.5 0 0 1 .8-.51l3.24 2.59a1 1 0 0 0 1.22 0l2.78-2.09a1 1 0 0 1 1.2 0l2.8 2.1a1 1 0 0 0 1.2 0l2.76-2.09a1 1 0 0 1 1.2 0l2.84 2.11a1 1 0 0 0 1.2 0l2.8-2.1a1 1 0 0 1 1.2 0l2.8 2.1a1 1 0 0 0 1.2 0l2.8-2.1a1 1 0 0 1 1.2 0l2.78 2.09a1 1 0 0 0 1.22 0l3.24-2.59A.5.5 0 0 1 52.64 36.44z" />
  <path fill="#ed7899" d="M32 4A5 5 0 1 0 32 14A5 5 0 1 0 32 4Z" />
  <path fill="#8d6c9f" d="M57,30.36c0-7.59-5.39-11-10.9-13.75a2.9,2.9,0,0,1-1.24-1.21A14,14,0,0,0,38,9.21,1.47,1.47,0,0,0,38,9,6,6,0,0,0,26,9a1.47,1.47,0,0,0,0,.21,13.93,13.93,0,0,0-6.88,6.19,2.84,2.84,0,0,1-1.24,1.21C12.38,19.41,7,22.77,7,30.36a7.84,7.84,0,0,0,3.35,5.82h0a1.49,1.49,0,0,0,0,.5l5.26,21A3,3,0,0,0,18.56,60H45.44a3,3,0,0,0,2.91-2.27l5.26-21a1.49,1.49,0,0,0,0-.5h0A7.84,7.84,0,0,0,57,30.36ZM32,5a4,4,0,0,1,4,3.52,3.87,3.87,0,0,1-.28,2,4,4,0,0,1-7.38,0,3.87,3.87,0,0,1-.28-2A4,4,0,0,1,32,5ZM9,30.36c0-5.88,3.44-8.74,9.8-12a4.86,4.86,0,0,0,2.09-2,11.93,11.93,0,0,1,5.53-5.14,6,6,0,0,0,11.16,0,11.91,11.91,0,0,1,5.52,5.14,4.9,4.9,0,0,0,2.09,2c6.36,3.23,9.81,6.09,9.81,12a5.9,5.9,0,0,1-2.89,4.45h0a1.49,1.49,0,0,0-.88.33L48,37.74,45.2,35.65a2,2,0,0,0-2.4,0L40,37.75l-2.8-2.1a2,2,0,0,0-2.4,0L32,37.75l-2.84-2.11a2,2,0,0,0-2.4,0L24,37.75l-2.8-2.1a2,2,0,0,0-2.4,0L16,37.74l-3.24-2.59a1.49,1.49,0,0,0-.88-.32A5.91,5.91,0,0,1,9,30.36ZM46.41,57.24a1,1,0,0,1-1,.76H18.56a1,1,0,0,1-1-.76L17.28,56H36a1,1,0,0,0,0-2H17a1,1,0,0,0-.21,0l-4.1-16.41,2.08,1.67a2,2,0,0,0,2.45,0L20,37.25l2.8,2.1a2,2,0,0,0,2.41,0L28,37.25l2.84,2.11a2,2,0,0,0,2.39,0l2.8-2.1,2.8,2.1a2,2,0,0,0,2.4,0l2.8-2.1,2.78,2.09a2,2,0,0,0,2.45,0l2.08-1.67Z" />
  <path fill="#8d6c9f" d="M27 32a1 1 0 0 0 1-1V29a1 1 0 0 0-2 0v2A1 1 0 0 0 27 32zM32 32a1 1 0 0 0 1-1V29a1 1 0 0 0-2 0v2A1 1 0 0 0 32 32zM17 32a1 1 0 0 0 1-1V29a1 1 0 0 0-2 0v2A1 1 0 0 0 17 32zM12 32a1 1 0 0 0 1-1V29a1 1 0 0 0-2 0v2A1 1 0 0 0 12 32zM22 32a1 1 0 0 0 1-1V29a1 1 0 0 0-2 0v2A1 1 0 0 0 22 32zM42 32a1 1 0 0 0 1-1V29a1 1 0 0 0-2 0v2A1 1 0 0 0 42 32zM37 32a1 1 0 0 0 1-1V29a1 1 0 0 0-2 0v2A1 1 0 0 0 37 32zM47 32a1 1 0 0 0 1-1V29a1 1 0 0 0-2 0v2A1 1 0 0 0 47 32zM52 32a1 1 0 0 0 1-1V29a1 1 0 0 0-2 0v2A1 1 0 0 0 52 32zM44 54H40a1 1 0 0 0 0 2h4a1 1 0 0 0 0-2z" />
</svg>