<?xml version="1.0" encoding="utf-8"?>
<svg xmlns="http://www.w3.org/2000/svg" viewBox="0 0 64 64" width="512" height="512">
  <path fill="#72caaf" d="M59.54,12.32H57.95a17.14,17.14,0,0,0-4.56.67l-.33-.33,6.73-5.51A3.82,3.82,0,0,0,59.11,4a2.48,2.48,0,0,0-2.85-.84l-7,8.23s.24-.54,0-4.07-3.52-.84-3.52-.84c.61,4.53-2.5,10.8-2.5,10.8l1.43,1.34-.71.71,1.24,1.41,1.13-.56.27.26,3.05-1.86a17.16,17.16,0,0,1,9.45-1.11,2.58,2.58,0,0,0,3-2.54h0A2.58,2.58,0,0,0,59.54,12.32Z" />
  <path fill="#f9dd8f" d="M51.23,31.44A6,6,0,0,1,49,36.13l-5.58,4.46-.37.3A89.89,89.89,0,0,1,17.25,55.3l-.72.26L6.66,59a2,2,0,0,1-2.54-2.55l3.45-9.87A90.14,90.14,0,0,1,22.24,20.1l4.76-6a6,6,0,0,1,6.58-1.94A27.39,27.39,0,0,1,50.92,29.54,5.91,5.91,0,0,1,51.23,31.44Z" />
  <path fill="#f7cc8f" d="M48.06,33.58a2.55,2.55,0,0,1-.41,3.53l-4.27,3.48-.37.3A89.89,89.89,0,0,1,17.25,55.3l-.72.26-1.87.65A2.55,2.55,0,0,1,11.58,55l-.14-.25a2.55,2.55,0,0,1,1.4-3.63l1.69-.59.72-.26A89.89,89.89,0,0,0,41,35.89l.37-.3,3.06-2.45a2.55,2.55,0,0,1,3.61.44Z" />
  <path fill="#ffeb9b" d="M33.78,12.28l-3.66,4.37-4.76,6a86.48,86.48,0,0,0-9.62,15,2,2,0,0,1-2.7.89h0a2,2,0,0,1-.88-2.66A89.89,89.89,0,0,1,22.24,20.1l4.76-6a6,6,0,0,1,6.58-1.94Z" />
  <path fill="#8d6c9f" d="M28.63 19.48a1 1 0 0 0 .78-.38l1.93-2.41a1 1 0 1 0-1.56-1.25l-1.93 2.41a1 1 0 0 0 .78 1.62zM26.66 20.94a1 1 0 0 0-1.41.16l-1 1.22a91.26 91.26 0 0 0-5.6 7.81 1 1 0 0 0 1.68 1.08 89.24 89.24 0 0 1 5.47-7.64l1-1.22A1 1 0 0 0 26.66 20.94zM31 39.17a1 1 0 0 0-1.41 1.41L31 42a1 1 0 0 0 1.41-1.41zM39.81 23.91l-1.41-1.41A1 1 0 0 0 37 23.91l1.41 1.41a1 1 0 0 0 1.41-1.41zM22.25 38a1 1 0 0 0-1.41 1.41l1.41 1.41a1 1 0 0 0 1.41-1.41zM29.74 29l-1.41-1.41A1 1 0 0 0 26.91 29l1.41 1.41A1 1 0 0 0 29.74 29zM12.64 49.07a1 1 0 0 0-1.41 1.41l1.41 1.41a1 1 0 0 0 1.41-1.41zM40.93 33.51a1 1 0 0 0-1.41 1.41l1.41 1.41a1 1 0 0 0 1.41-1.41zM19.71 46.24a1 1 0 0 0-1.41 1.41l1.41 1.41a1 1 0 0 0 1.41-1.41z" />
  <path fill="#8d6c9f" d="M62.08,12.36a3.64,3.64,0,0,0-2.55-1H57.94c-.51,0-1,0-1.52.09l3.35-2.79A3.75,3.75,0,0,0,60,3.1,3.81,3.81,0,0,0,57.2,2,3.76,3.76,0,0,0,54.5,3.33l-4.19,5V7.18A3,3,0,0,0,49.44,5,3.09,3.09,0,0,0,45,5.21a3,3,0,0,0-.67,2.44,12.25,12.25,0,0,1-1.12,7.51l-.48,1a28.31,28.31,0,0,0-8.84-4.86,7,7,0,0,0-7.68,2.27l-4.76,6A90.77,90.77,0,0,0,6.63,46.26L3.17,56.13a3,3,0,0,0,2.82,4A3,3,0,0,0,7,60l9.87-3.45A90.77,90.77,0,0,0,43.65,41.67l6-4.76a7,7,0,0,0,2.27-7.68,28.29,28.29,0,0,0-4.53-8.43l1.79-.89A16.07,16.07,0,0,1,59,18.44a3.59,3.59,0,0,0,3.11-6.08ZM56,4.62a1.75,1.75,0,1,1,2.46,2.48l-6.17,5.14-.05.06a17.94,17.94,0,0,0-3,1.31,14.17,14.17,0,0,0,.58-1.83,1,1,0,0,0,.31-.25ZM45,16a14.23,14.23,0,0,0,1.3-8.72,1,1,0,1,1,2-.16V8.4A12.25,12.25,0,0,1,44.7,17l-.33.33Zm3.34,19.3-6,4.76A88.78,88.78,0,0,1,16.2,54.61L6.33,58.07a1,1,0,0,1-1.27-1.27l3.45-9.87A88.78,88.78,0,0,1,23,20.73l4.76-6A5,5,0,0,1,31.7,12.9a5,5,0,0,1,1.57.25A26.54,26.54,0,0,1,50,29.86,5,5,0,0,1,48.35,35.34ZM60.58,16.12a1.58,1.58,0,0,1-1.28.35,18.06,18.06,0,0,0-11.07,1.65L46,19.22,45.77,19l.89-.89A16.07,16.07,0,0,1,58,13.33h1.61a1.59,1.59,0,0,1,1,2.8Z" />
</svg>